<svg xmlns="http://www.w3.org/2000/svg" xmlns:xlink="http://www.w3.org/1999/xlink" viewBox="0 0 808.06 486"><defs><linearGradient id="a" x1="113.47" y1="256" x2="505.6" y2="256" gradientUnits="userSpaceOnUse"><stop offset="0" stop-color="#fff"/><stop offset="0" stop-color="#fdfdfd"/><stop offset="0" stop-color="#f6f6f6"/><stop offset="0" stop-color="#ebebeb"/><stop offset="0" stop-color="#e8e8e8"/><stop offset="0.27" stop-color="#e6e6e6"/><stop offset="0.41" stop-color="#dedede"/><stop offset="0.52" stop-color="#d0d0d0"/><stop offset="0.62" stop-color="#bdbdbd"/><stop offset="0.7" stop-color="#a4a4a4"/><stop offset="0.78" stop-color="#868686"/><stop offset="0.86" stop-color="#616161"/><stop offset="0.93" stop-color="#373737"/><stop offset="0.99" stop-color="#080808"/><stop offset="1"/></linearGradient><linearGradient id="b" x1="608.56" y1="5.5" x2="608.56" y2="132.5" gradientUnits="userSpaceOnUse"><stop offset="0" stop-color="#005b00"/><stop offset="0.23" stop-color="#005d01"/><stop offset="0.32" stop-color="#006406"/><stop offset="0.38" stop-color="#006f0f"/><stop offset="0.43" stop-color="#00801b"/><stop offset="0.47" stop-color="#00962b"/><stop offset="0.49" stop-color="#00a637"/><stop offset="0.5" stop-color="#02a537"/><stop offset="0.5" stop-color="#09a336"/><stop offset="0.5" stop-color="#159f35"/><stop offset="0.5" stop-color="#269a34"/><stop offset="0.5" stop-color="#3d9332"/><stop offset="0.5" stop-color="#598a30"/><stop offset="0.5" stop-color="#7a7f2d"/><stop offset="0.5" stop-color="#a1732a"/><stop offset="0.5" stop-color="#cb6627"/><stop offset="0.51" stop-color="#f15a24"/><stop offset="0.62" stop-color="#ef5924"/><stop offset="0.66" stop-color="#e85724"/><stop offset="0.68" stop-color="#e05524"/><stop offset="0.71" stop-color="#d85223"/><stop offset="0.76" stop-color="#c1491f"/><stop offset="0.81" stop-color="#9d3b19"/><stop offset="0.88" stop-color="#6a2811"/><stop offset="0.96" stop-color="#291007"/><stop offset="1"/></linearGradient><linearGradient id="c" x1="608.56" y1="480.5" x2="608.56" y2="353.5" xlink:href="#b"/><linearGradient id="d" x1="608.56" y1="179.5" x2="608.56" y2="306.5" gradientUnits="userSpaceOnUse"><stop offset="0" stop-color="#f15a24"/><stop offset="0.21" stop-color="#ef5924"/><stop offset="0.28" stop-color="#e85724"/><stop offset="0.32" stop-color="#e05524"/><stop offset="0.32" stop-color="#d95a2c"/><stop offset="0.33" stop-color="#c56843"/><stop offset="0.33" stop-color="#a57e67"/><stop offset="0.33" stop-color="#998675"/><stop offset="0.61" stop-color="#998675"/><stop offset="0.66" stop-color="#998675"/><stop offset="0.66" stop-color="#9c8573"/><stop offset="0.66" stop-color="#a4806b"/><stop offset="0.66" stop-color="#b3795d"/><stop offset="0.66" stop-color="#c86f4a"/><stop offset="0.67" stop-color="#e26132"/><stop offset="0.67" stop-color="#f15a24"/><stop offset="0.72" stop-color="#ee5924"/><stop offset="0.77" stop-color="#e45522"/><stop offset="0.81" stop-color="#d34f1f"/><stop offset="0.84" stop-color="#ba461c"/><stop offset="0.88" stop-color="#9b3a17"/><stop offset="0.92" stop-color="#752c12"/><stop offset="0.95" stop-color="#481b0b"/><stop offset="0.99" stop-color="#150803"/><stop offset="1"/></linearGradient><linearGradient id="e" x1="822.44" y1="319.5" x2="822.44" y2="366.5" gradientUnits="userSpaceOnUse"><stop offset="0" stop-color="#f7931e"/><stop offset="0.2" stop-color="#b46b16"/><stop offset="0.41" stop-color="#75450e"/><stop offset="0.61" stop-color="#422708"/><stop offset="0.78" stop-color="#1e1204"/><stop offset="0.91" stop-color="#080501"/><stop offset="1"/></linearGradient><linearGradient id="f" x1="610.62" y1="145.5" x2="610.62" y2="192.5" xlink:href="#e"/></defs><title>openstackup_logo</title><path d="M441.06,493.5H113.47V83A64.53,64.53,0,0,1,178,18.5H505.6V429A64.54,64.54,0,0,1,441.06,493.5ZM406.58,309V203A64.54,64.54,0,0,0,342,138.45H277A64.53,64.53,0,0,0,212.49,203V309A64.53,64.53,0,0,0,277,373.55h65A64.54,64.54,0,0,0,406.58,309Z" transform="translate(-107.97 -13)" style="stroke:#000;stroke-linejoin:round;stroke-width:11px;fill:url(#a)"/><rect x="414.56" y="5.5" width="388" height="127" style="stroke:#000;stroke-linejoin:round;stroke-width:11px;fill:url(#b)"/><rect x="414.56" y="353.5" width="388" height="127" style="stroke:#000;stroke-linejoin:round;stroke-width:11px;fill:url(#c)"/><rect x="414.56" y="179.5" width="388" height="127" style="stroke:#000;stroke-linejoin:round;stroke-width:11px;fill:url(#d)"/><path d="M740.53,319.5l-.41.77a47.74,47.74,0,0,0,.41,46.23h170a47.74,47.74,0,0,1-.41-46.23l.41-.77Z" transform="translate(-107.97 -13)" style="stroke:#000;stroke-linejoin:round;stroke-width:11px;fill:url(#e)"/><path d="M692.53,145.5l.42.77a47.74,47.74,0,0,1-.42,46.23h-170a47.74,47.74,0,0,0,.42-46.23l-.42-.77Z" transform="translate(-107.97 -13)" style="stroke:#000;stroke-linejoin:round;stroke-width:11px;fill:url(#f)"/></svg>